<?xml version="1.0" encoding="UTF-8" standalone="no"?>
<!-- Created with Inkscape (http://www.inkscape.org/) -->

<svg
   width="48.147133mm"
   height="66.915237mm"
   viewBox="0 0 48.147133 66.915237"
   version="1.1"
   id="svg5"
   xml:space="preserve"
   inkscape:version="1.2.2 (b0a84865, 2022-12-01)"
   sodipodi:docname="1pcc_logo.svg"
   xmlns:inkscape="http://www.inkscape.org/namespaces/inkscape"
   xmlns:sodipodi="http://sodipodi.sourceforge.net/DTD/sodipodi-0.dtd"
   xmlns="http://www.w3.org/2000/svg"
   xmlns:svg="http://www.w3.org/2000/svg"><sodipodi:namedview
     id="namedview7"
     pagecolor="#ffffff"
     bordercolor="#000000"
     borderopacity="0.25"
     inkscape:showpageshadow="2"
     inkscape:pageopacity="0.0"
     inkscape:pagecheckerboard="0"
     inkscape:deskcolor="#d1d1d1"
     inkscape:document-units="mm"
     showgrid="false"
     inkscape:zoom="1.8360004"
     inkscape:cx="69.71676"
     inkscape:cy="151.96075"
     inkscape:window-width="1512"
     inkscape:window-height="832"
     inkscape:window-x="0"
     inkscape:window-y="38"
     inkscape:window-maximized="1"
     inkscape:current-layer="layer2"
     showguides="false" /><defs
     id="defs2"><rect
       x="214.03976"
       y="275.87347"
       width="532.26062"
       height="452.33252"
       id="rect236" /><rect
       x="289.65945"
       y="780.53278"
       width="424.53906"
       height="112.76819"
       id="rect8225" /><rect
       x="81.302666"
       y="680.12805"
       width="695.76318"
       height="256.41608"
       id="rect687" /><inkscape:path-effect
       effect="fillet_chamfer"
       id="path-effect4090"
       is_visible="true"
       lpeversion="1"
       nodesatellites_param="F,0,0,1,0,0.26458333,0,1 @ F,0,0,1,0,0.26458333,0,1 @ F,0,0,1,0,0.26458333,0,1 @ F,0,0,1,0,0.26458333,0,1 @ F,0,0,1,0,0.26458333,0,1 @ F,0,0,1,0,0.26458333,0,1 @ F,0,0,1,0,0.26458333,0,1 @ F,0,0,1,0,0.26458333,0,1 @ F,0,0,1,0,0.26458333,0,1 @ F,0,0,1,0,0.26458333,0,1 @ F,0,0,1,0,0.26458333,0,1 @ F,0,0,1,0,0.26458333,0,1"
       unit="px"
       method="auto"
       mode="F"
       radius="1"
       chamfer_steps="1"
       flexible="false"
       use_knot_distance="true"
       apply_no_radius="true"
       apply_with_radius="true"
       only_selected="false"
       hide_knots="false" /><inkscape:path-effect
       effect="fillet_chamfer"
       id="path-effect4088"
       is_visible="true"
       lpeversion="1"
       nodesatellites_param="F,0,0,1,0,0.26458333,0,1 @ F,0,0,1,0,0.26458333,0,1 @ F,0,0,1,0,0.26458333,0,1 @ F,0,0,1,0,0.26458333,0,1 @ F,0,0,1,0,0.26458333,0,1 @ F,0,0,1,0,0.26458333,0,1 @ F,0,0,1,0,0.26458333,0,1 @ F,0,0,1,0,0.26458333,0,1 @ F,0,0,1,0,0.26458333,0,1 @ F,0,0,1,0,0.26458333,0,1 @ F,0,0,1,0,0.26458333,0,1 @ F,0,0,1,0,0.26458333,0,1"
       unit="px"
       method="auto"
       mode="F"
       radius="1"
       chamfer_steps="1"
       flexible="false"
       use_knot_distance="true"
       apply_no_radius="true"
       apply_with_radius="true"
       only_selected="false"
       hide_knots="false" /><inkscape:path-effect
       effect="fillet_chamfer"
       id="path-effect4086"
       is_visible="true"
       lpeversion="1"
       nodesatellites_param="F,0,0,1,0,0.26458333,0,1 @ F,0,0,1,0,0.26458333,0,1 @ F,0,0,1,0,0.26458333,0,1 @ F,0,0,1,0,0.26458333,0,1"
       unit="px"
       method="auto"
       mode="F"
       radius="1"
       chamfer_steps="1"
       flexible="false"
       use_knot_distance="true"
       apply_no_radius="true"
       apply_with_radius="true"
       only_selected="false"
       hide_knots="false" /><inkscape:path-effect
       effect="fillet_chamfer"
       id="path-effect3984"
       is_visible="true"
       lpeversion="1"
       nodesatellites_param="F,0,0,1,0,0,0,7 @ F,0,1,1,0,0.26458333,0,7 @ F,0,1,1,0,0.26458333,0,7 @ F,0,1,1,0,0.26458333,0,7 @ F,0,1,1,0,0.26458333,0,7 @ F,0,1,1,0,0.26458333,0,7 @ F,0,1,1,0,0.26458333,0,7 @ F,0,1,1,0,0.26458333,0,7 @ F,0,1,1,0,0.26458333,0,7 @ F,0,1,1,0,0.26458333,0,7 @ F,0,1,1,0,0.26458333,0,7 @ F,0,1,1,0,0.26458333,0,7 @ F,0,1,1,0,0.26458333,0,7 @ F,0,1,1,0,0.26458333,0,7 @ F,0,1,1,0,0.26458333,0,7 @ F,0,1,1,0,0.26458333,0,7 @ F,0,1,1,0,0.26458333,0,7 @ F,0,1,1,0,0.26458333,0,7 @ F,0,1,1,0,0.26458333,0,7 @ F,0,0,1,0,0,0,7"
       unit="px"
       method="auto"
       mode="F"
       radius="1"
       chamfer_steps="7"
       flexible="false"
       use_knot_distance="true"
       apply_no_radius="true"
       apply_with_radius="true"
       only_selected="true"
       hide_knots="false" /><rect
       x="-902.85712"
       y="201.64989"
       width="815.65204"
       height="226.92154"
       id="rect814" /><filter
       style="color-interpolation-filters:sRGB"
       inkscape:label="Drop Shadow"
       id="filter5449"
       x="-0.31174591"
       y="-0.31174591"
       width="1.6234918"
       height="1.6234918"><feFlood
         flood-opacity="1"
         flood-color="rgb(0,0,0)"
         result="flood"
         id="feFlood5439" /><feComposite
         in="flood"
         in2="SourceGraphic"
         operator="in"
         result="composite1"
         id="feComposite5441" /><feGaussianBlur
         in="composite1"
         stdDeviation="9.375"
         result="blur"
         id="feGaussianBlur5443" /><feOffset
         dx="0"
         dy="0"
         result="offset"
         id="feOffset5445" /><feComposite
         in="SourceGraphic"
         in2="offset"
         operator="over"
         result="composite2"
         id="feComposite5447" /></filter><filter
       style="color-interpolation-filters:sRGB"
       inkscape:label="Drop Shadow"
       id="filter5449-3"
       x="-0.31174591"
       y="-0.31174591"
       width="1.6234918"
       height="1.6234918"><feFlood
         flood-opacity="1"
         flood-color="rgb(0,0,0)"
         result="flood"
         id="feFlood5439-9" /><feComposite
         in="flood"
         in2="SourceGraphic"
         operator="in"
         result="composite1"
         id="feComposite5441-7" /><feGaussianBlur
         in="composite1"
         stdDeviation="9.375"
         result="blur"
         id="feGaussianBlur5443-3" /><feOffset
         dx="0"
         dy="0"
         result="offset"
         id="feOffset5445-7" /><feComposite
         in="SourceGraphic"
         in2="offset"
         operator="over"
         result="composite2"
         id="feComposite5447-5" /></filter><filter
       style="color-interpolation-filters:sRGB"
       inkscape:label="Drop Shadow"
       id="filter28441"
       x="-0.067106239"
       y="-0.067106239"
       width="1.1342125"
       height="1.1342125"><feFlood
         flood-opacity="0.65098"
         flood-color="rgb(0,0,0)"
         result="flood"
         id="feFlood28431" /><feComposite
         in="flood"
         in2="SourceGraphic"
         operator="in"
         result="composite1"
         id="feComposite28433" /><feGaussianBlur
         in="composite1"
         stdDeviation="2"
         result="blur"
         id="feGaussianBlur28435" /><feOffset
         dx="0"
         dy="0"
         result="offset"
         id="feOffset28437" /><feComposite
         in="SourceGraphic"
         in2="offset"
         operator="over"
         result="composite2"
         id="feComposite28439" /></filter><filter
       style="color-interpolation-filters:sRGB"
       inkscape:label="Drop Shadow"
       id="filter28441-7"
       x="-0.067106239"
       y="-0.067106239"
       width="1.1342125"
       height="1.1342125"><feFlood
         flood-opacity="0.65098"
         flood-color="rgb(0,0,0)"
         result="flood"
         id="feFlood28431-1" /><feComposite
         in="flood"
         in2="SourceGraphic"
         operator="in"
         result="composite1"
         id="feComposite28433-8" /><feGaussianBlur
         in="composite1"
         stdDeviation="2"
         result="blur"
         id="feGaussianBlur28435-9" /><feOffset
         dx="0"
         dy="0"
         result="offset"
         id="feOffset28437-3" /><feComposite
         in="SourceGraphic"
         in2="offset"
         operator="over"
         result="composite2"
         id="feComposite28439-7" /></filter><filter
       style="color-interpolation-filters:sRGB"
       inkscape:label="Drop Shadow"
       id="filter30761"
       x="-0.06710764"
       y="-0.06710764"
       width="1.1342154"
       height="1.1342154"><feFlood
         flood-opacity="0.20863309352517986"
         flood-color="rgb(0,0,0)"
         result="flood"
         id="feFlood30751" /><feComposite
         in="flood"
         in2="SourceGraphic"
         operator="in"
         result="composite1"
         id="feComposite30753" /><feGaussianBlur
         in="composite1"
         stdDeviation="2"
         result="blur"
         id="feGaussianBlur30755" /><feOffset
         dx="0"
         dy="0"
         result="offset"
         id="feOffset30757" /><feComposite
         in="SourceGraphic"
         in2="offset"
         operator="over"
         result="composite2"
         id="feComposite30759" /></filter><filter
       style="color-interpolation-filters:sRGB"
       inkscape:label="Drop Shadow"
       id="filter32297"
       x="-0.067106239"
       y="-0.067106239"
       width="1.1342125"
       height="1.1342125"><feFlood
         flood-opacity="0.22302158273381295"
         flood-color="rgb(0,0,0)"
         result="flood"
         id="feFlood32287" /><feComposite
         in="flood"
         in2="SourceGraphic"
         operator="in"
         result="composite1"
         id="feComposite32289" /><feGaussianBlur
         in="composite1"
         stdDeviation="2"
         result="blur"
         id="feGaussianBlur32291" /><feOffset
         dx="0"
         dy="0"
         result="offset"
         id="feOffset32293" /><feComposite
         in="SourceGraphic"
         in2="offset"
         operator="over"
         result="composite2"
         id="feComposite32295" /></filter><filter
       style="color-interpolation-filters:sRGB"
       inkscape:label="Drop Shadow"
       id="filter30761-1"
       x="-0.06710764"
       y="-0.06710764"
       width="1.1342154"
       height="1.1342154"><feFlood
         flood-opacity="0.12949640287769784"
         flood-color="rgb(0,0,0)"
         result="flood"
         id="feFlood30751-0" /><feComposite
         in="flood"
         in2="SourceGraphic"
         operator="in"
         result="composite1"
         id="feComposite30753-3" /><feGaussianBlur
         in="composite1"
         stdDeviation="2"
         result="blur"
         id="feGaussianBlur30755-0" /><feOffset
         dx="0"
         dy="0"
         result="offset"
         id="feOffset30757-0" /><feComposite
         in="SourceGraphic"
         in2="offset"
         operator="over"
         result="composite2"
         id="feComposite30759-3" /></filter><filter
       style="color-interpolation-filters:sRGB"
       inkscape:label="Drop Shadow"
       id="filter2856"
       x="-0.024442799"
       y="-0.25882429"
       width="1.0488856"
       height="1.5176486"><feFlood
         flood-opacity="1"
         flood-color="rgb(0,0,0)"
         result="flood"
         id="feFlood2846" /><feComposite
         in="flood"
         in2="SourceGraphic"
         operator="in"
         result="composite1"
         id="feComposite2848" /><feGaussianBlur
         in="composite1"
         stdDeviation="6"
         result="blur"
         id="feGaussianBlur2850" /><feOffset
         dx="0"
         dy="0"
         result="offset"
         id="feOffset2852" /><feComposite
         in="SourceGraphic"
         in2="offset"
         operator="over"
         result="composite2"
         id="feComposite2854" /></filter><filter
       style="color-interpolation-filters:sRGB"
       inkscape:label="Drop Shadow"
       id="filter3654"
       x="-0.046047289"
       y="-0.56293273"
       width="1.0920945"
       height="2.1258655"><feFlood
         flood-opacity="1"
         flood-color="rgb(0,0,0)"
         result="flood"
         id="feFlood3644" /><feComposite
         in="flood"
         in2="SourceGraphic"
         operator="in"
         result="composite1"
         id="feComposite3646" /><feGaussianBlur
         in="composite1"
         stdDeviation="3.5"
         result="blur"
         id="feGaussianBlur3648" /><feOffset
         dx="0"
         dy="0"
         result="offset"
         id="feOffset3650" /><feComposite
         in="SourceGraphic"
         in2="offset"
         operator="over"
         result="composite2"
         id="feComposite3652" /></filter><filter
       style="color-interpolation-filters:sRGB"
       inkscape:label="Drop Shadow"
       id="filter4476"
       x="-0.051651172"
       y="-0.54693317"
       width="1.1033024"
       height="2.0938663"><feFlood
         flood-opacity="1"
         flood-color="rgb(0,0,0)"
         result="flood"
         id="feFlood4466" /><feComposite
         in="flood"
         in2="SourceGraphic"
         operator="in"
         result="composite1"
         id="feComposite4468" /><feGaussianBlur
         in="composite1"
         stdDeviation="13"
         result="blur"
         id="feGaussianBlur4470" /><feOffset
         dx="0"
         dy="0"
         result="offset"
         id="feOffset4472" /><feComposite
         in="SourceGraphic"
         in2="offset"
         operator="over"
         result="composite2"
         id="feComposite4474" /></filter><filter
       style="color-interpolation-filters:sRGB"
       inkscape:label="Drop Shadow"
       id="filter3654-4"
       x="-0.054372001"
       y="-0.56146294"
       width="1.108744"
       height="2.1229258"><feFlood
         flood-opacity="1"
         flood-color="rgb(0,0,0)"
         result="flood"
         id="feFlood3644-8" /><feComposite
         in="flood"
         in2="SourceGraphic"
         operator="in"
         result="composite1"
         id="feComposite3646-5" /><feGaussianBlur
         in="composite1"
         stdDeviation="3.5"
         result="blur"
         id="feGaussianBlur3648-8" /><feOffset
         dx="0"
         dy="0"
         result="offset"
         id="feOffset3650-3" /><feComposite
         in="SourceGraphic"
         in2="offset"
         operator="over"
         result="composite2"
         id="feComposite3652-0" /></filter><filter
       style="color-interpolation-filters:sRGB"
       inkscape:label="Drop Shadow"
       id="filter6493"
       x="-0.03266792"
       y="-0.33733952"
       width="1.0653358"
       height="1.674679"><feFlood
         flood-opacity="1"
         flood-color="rgb(0,0,0)"
         result="flood"
         id="feFlood6483" /><feComposite
         in="flood"
         in2="SourceGraphic"
         operator="in"
         result="composite1"
         id="feComposite6485" /><feGaussianBlur
         in="composite1"
         stdDeviation="2"
         result="blur"
         id="feGaussianBlur6487" /><feOffset
         dx="0"
         dy="0"
         result="offset"
         id="feOffset6489" /><feComposite
         in="SourceGraphic"
         in2="offset"
         operator="over"
         result="composite2"
         id="feComposite6491" /></filter><rect
       x="81.302666"
       y="680.12805"
       width="695.76318"
       height="256.41608"
       id="rect687-1" /><filter
       style="color-interpolation-filters:sRGB"
       inkscape:label="Poster Turbulent"
       id="filter4476-0"
       x="-0.16624866"
       y="-0.63191819"
       width="1.3324974"
       height="2.2638364"
       inkscape:menu="Overlays"
       inkscape:menu-tooltip="Basic noise fill texture; adjust color in Flood"><feFlood
         flood-opacity="1"
         flood-color="rgb(0,0,0)"
         result="flood"
         id="feFlood4466-0" /><feComposite
         in="flood"
         in2="SourceGraphic"
         operator="in"
         result="composite1"
         id="feComposite4468-9" /><feGaussianBlur
         in="composite1"
         stdDeviation="13"
         result="blur"
         id="feGaussianBlur4470-7" /><feOffset
         dx="0"
         dy="0"
         result="offset"
         id="feOffset4472-1" /><feComposite
         in="SourceGraphic"
         in2="offset"
         operator="over"
         result="fbSourceGraphic"
         id="feComposite4474-7" /><feColorMatrix
         result="fbSourceGraphicAlpha"
         in="fbSourceGraphic"
         values="0 0 0 -1 0 0 0 0 -1 0 0 0 0 -1 0 0 0 0 1 0"
         id="feColorMatrix9832" /><feColorMatrix
         id="feColorMatrix9834"
         result="result6"
         values="2 -1 0 0 0 0 2 -1 0 0 -1 0 2 0 0 0 0 0 1 0 "
         in="fbSourceGraphic" /><feTurbulence
         id="feTurbulence9836"
         type="fractalNoise"
         baseFrequency="0.05"
         numOctaves="3" /><feColorMatrix
         id="feColorMatrix9838"
         values="1 0 0 0 0 0 1 0 0 0 0 0 1 0 0 0 0 0 3 -1 "
         result="result0" /><feFlood
         id="feFlood9840"
         result="result1"
         flood-color="rgb(146,144,165)"
         flood-opacity="1" /><feBlend
         in2="result6"
         id="feBlend9842"
         result="result2"
         in="result1"
         mode="multiply" /><feComposite
         in2="result0"
         id="feComposite9844"
         result="result3"
         operator="out" /><feComposite
         in2="result6"
         id="feComposite9846"
         result="fbSourceGraphic"
         operator="atop" /><feGaussianBlur
         id="feGaussianBlur9848"
         in="fbSourceGraphic"
         stdDeviation="2"
         result="result3" /><feGaussianBlur
         id="feGaussianBlur9850"
         result="result4"
         in="fbSourceGraphic"
         stdDeviation="0.01" /><feBlend
         in2="result3"
         id="feBlend9852"
         mode="darken" /><feColorMatrix
         id="feColorMatrix9854"
         type="hueRotate"
         values="0" /><feComponentTransfer
         id="feComponentTransfer9856"
         result="result1"><feFuncR
           id="feFuncR9858"
           type="discrete"
           tableValues="0 0.2 0.4 0.6 0.8 1 1" /><feFuncG
           id="feFuncG9860"
           type="discrete"
           tableValues="0 0.2 0.4 0.6 0.8 1 1" /><feFuncB
           id="feFuncB9862"
           type="discrete"
           tableValues="0 0.2 0.4 0.6 0.8 1 1" /></feComponentTransfer><feColorMatrix
         id="feColorMatrix9864"
         values="1"
         type="saturate" /><feGaussianBlur
         id="feGaussianBlur9866"
         result="result5"
         stdDeviation="0.01" /><feComposite
         in2="fbSourceGraphic"
         id="feComposite9868"
         operator="in"
         result="result2" /></filter><filter
       style="color-interpolation-filters:sRGB"
       inkscape:label="Drop Shadow"
       id="filter6493-7"
       x="-0.03266792"
       y="-0.33733952"
       width="1.0653358"
       height="1.674679"><feFlood
         flood-opacity="1"
         flood-color="rgb(0,0,0)"
         result="flood"
         id="feFlood6483-9" /><feComposite
         in="flood"
         in2="SourceGraphic"
         operator="in"
         result="composite1"
         id="feComposite6485-6" /><feGaussianBlur
         in="composite1"
         stdDeviation="2"
         result="blur"
         id="feGaussianBlur6487-6" /><feOffset
         dx="0"
         dy="0"
         result="offset"
         id="feOffset6489-6" /><feComposite
         in="SourceGraphic"
         in2="offset"
         operator="over"
         result="composite2"
         id="feComposite6491-6" /></filter></defs><g
     inkscape:label="Layer 1"
     inkscape:groupmode="layer"
     id="layer1"
     transform="translate(-83.972601,-38.105271)" /><g
     inkscape:groupmode="layer"
     id="layer2"
     inkscape:label="BCC LOGO"
     transform="translate(-83.972601,-38.105271)"><g
       id="g421"><text
         xml:space="preserve"
         style="font-style:normal;font-variant:normal;font-weight:bold;font-stretch:normal;font-size:6.52667px;font-family:sans-serif;-inkscape-font-specification:'sans-serif Bold';text-align:center;text-anchor:middle;fill:#24354f;fill-opacity:1;stroke:none;stroke-width:0.654313;stroke-linecap:square;stroke-linejoin:bevel;stroke-opacity:1"
         x="102.92667"
         y="70.935043"
         id="text408"><tspan
           sodipodi:role="line"
           style="font-style:normal;font-variant:normal;font-weight:bold;font-stretch:normal;font-family:sans-serif;-inkscape-font-specification:'sans-serif Bold';text-align:start;text-anchor:start;fill:#24354f;fill-opacity:1;stroke:none;stroke-width:0.654313;stroke-opacity:1"
           x="102.92667"
           y="70.935043"
           id="tspan414">THE</tspan></text><text
         xml:space="preserve"
         style="font-style:normal;font-variant:normal;font-weight:bold;font-stretch:normal;font-size:6.52667px;font-family:sans-serif;-inkscape-font-specification:'sans-serif Bold';text-align:center;text-anchor:middle;fill:#24354f;fill-opacity:1;stroke:none;stroke-width:0.654313;stroke-linecap:square;stroke-linejoin:bevel;stroke-opacity:1"
         x="98.468933"
         y="94.117249"
         id="text408-86"><tspan
           sodipodi:role="line"
           style="font-style:normal;font-variant:normal;font-weight:bold;font-stretch:normal;font-family:sans-serif;-inkscape-font-specification:'sans-serif Bold';text-align:start;text-anchor:start;fill:#24354f;fill-opacity:1;stroke:none;stroke-width:0.654313;stroke-opacity:1"
           x="98.468933"
           y="94.117249"
           id="tspan414-15">CLUB</tspan></text><text
         xml:space="preserve"
         style="font-style:normal;font-variant:normal;font-weight:bold;font-stretch:normal;font-size:9.07512px;font-family:sans-serif;-inkscape-font-specification:'sans-serif Bold';text-align:center;text-anchor:middle;fill:#24354f;fill-opacity:1;stroke:none;stroke-width:0.909801;stroke-linecap:square;stroke-linejoin:bevel;stroke-opacity:1"
         x="84.155487"
         y="95.090462"
         id="text408-8"
         transform="scale(1.2335623,0.81066029)"><tspan
           sodipodi:role="line"
           style="font-style:normal;font-variant:normal;font-weight:bold;font-stretch:normal;font-family:sans-serif;-inkscape-font-specification:'sans-serif Bold';text-align:start;text-anchor:start;fill:#24354f;fill-opacity:1;stroke:none;stroke-width:0.909801;stroke-opacity:1"
           x="84.155487"
           y="95.090462"
           id="tspan414-1">%</tspan></text><text
         xml:space="preserve"
         style="font-style:normal;font-variant:normal;font-weight:bold;font-stretch:normal;font-size:11.3809px;font-family:sans-serif;-inkscape-font-specification:'sans-serif Bold';text-align:center;text-anchor:middle;fill:#24354f;fill-opacity:1;stroke:none;stroke-width:1.14095;stroke-linecap:square;stroke-linejoin:bevel;stroke-opacity:1"
         x="134.88129"
         y="56.077648"
         id="text408-7"
         transform="scale(0.72675893,1.3759721)"><tspan
           sodipodi:role="line"
           style="font-style:normal;font-variant:normal;font-weight:bold;font-stretch:normal;font-family:sans-serif;-inkscape-font-specification:'sans-serif Bold';text-align:start;text-anchor:start;fill:#24354f;fill-opacity:1;stroke:none;stroke-width:1.14095;stroke-opacity:1"
           x="134.88129"
           y="56.077648"
           id="tspan414-9">1</tspan></text><path
         id="path1065"
         style="fill:#ba9128;fill-opacity:1;stroke-width:0.0920883"
         d="m 110.20852,48.298347 a 0.08885948,0.08885948 0 0 0 -0.0904,0.08832 l -0.005,0.972791 a 0.09038779,0.09038779 0 0 1 -0.0904,0.08991 h -1.16068 a 0.08990426,0.08990426 0 0 1 -0.0899,-0.08991 v -0.948031 a 0.08990417,0.08990417 0 0 0 -0.0899,-0.0899 h -1.26814 a 0.08990417,0.08990417 0 0 0 -0.0899,0.0899 v 0.948031 a 0.08990417,0.08990417 0 0 1 -0.0899,0.08991 h -1.12082 a 0.08904273,0.08904273 0 0 1 -0.089,-0.08991 l 0.009,-0.963308 a 0.08930693,0.08930693 0 0 0 -0.089,-0.09025 l -1.37086,-0.004 a 0.08913905,0.08913905 0 0 0 -0.0894,0.08973 l 0.0209,3.756481 a 0.089958,0.089958 0 0 1 -0.0894,0.09061 l -0.93574,0.0058 a 0.08991349,0.08991349 0 0 1 -0.0906,-0.08938 l -0.0102,-1.626176 a 0.08961539,0.08961539 0 0 0 -0.0904,-0.08903 l -1.60827,0.01527 a 0.09076266,0.09076266 0 0 0 -0.0899,0.09078 V 62.5243 l 13.02083,0.04408 -0.0211,-12.022391 a 0.09116643,0.09116643 0 0 0 -0.0901,-0.09096 l -1.62424,-0.01984 a 0.08881523,0.08881523 0 0 0 -0.0899,0.08885 v 1.624069 a 0.08990417,0.08990417 0 0 1 -0.0899,0.0899 h -1.01898 a 0.09041024,0.09041024 0 0 1 -0.0904,-0.0899 l -0.0211,-3.736639 a 0.09196547,0.09196547 0 0 0 -0.0903,-0.09148 z m -0.32397,2.985801 a 0.08933689,0.08933689 0 0 1 0.0896,0.08973 l -0.004,0.752246 a 0.09087115,0.09087115 0 0 1 -0.0903,0.09043 l -3.55542,0.0209 a 0.08937593,0.08937593 0 0 1 -0.0899,-0.08938 v -0.7684 a 0.09004134,0.09004134 0 0 1 0.0899,-0.09008 z m 1.98298,3.549279 h 0.69747 a 0.08993744,0.08993744 0 0 1 0.0899,0.0899 l 1.7e-4,0.426343 a 0.08916584,0.08916584 0 0 0 0.0899,0.08903 l 0.46919,-0.004 a 0.08790107,0.08790107 0 0 1 0.0887,0.0892 l -0.01,0.723623 a 0.0911639,0.0911639 0 0 1 -0.0911,0.0899 h -0.45637 a 0.08986857,0.08986857 0 0 0 -0.0899,0.0899 l 7.7e-4,1.536095 a 0.08986857,0.08986857 0 0 1 -0.0899,0.0899 h -0.69746 a 0.08993979,0.08993979 0 0 1 -0.0899,-0.0899 h -1.7e-4 l -7.7e-4,-1.536095 a 0.08993979,0.08993979 0 0 0 -0.0899,-0.0899 h -0.43302 a 0.09000629,0.09000629 0 0 1 -0.0899,-0.0899 l -7.7e-4,-0.718004 a 0.08980216,0.08980216 0 0 1 0.0897,-0.0899 h 0.43372 a 0.08987141,0.08987141 0 0 0 0.0899,-0.0899 l -1.7e-4,-0.426343 a 0.08987141,0.08987141 0 0 1 0.0899,-0.0899 z m -8.28611,0.148729 h 0.69746 a 0.08993744,0.08993744 0 0 1 0.0899,0.0899 l 1.8e-4,0.426166 a 0.08916584,0.08916584 0 0 0 0.0901,0.0892 l 0.46919,-0.004 a 0.08790107,0.08790107 0 0 1 0.0887,0.08903 l -0.01,0.723798 a 0.0911639,0.0911639 0 0 1 -0.0911,0.0899 h -0.45655 a 0.08986857,0.08986857 0 0 0 -0.0897,0.08991 l 5.4e-4,1.53592 a 0.08986857,0.08986857 0 0 1 -0.0899,0.0899 h -0.69728 a 0.08993979,0.08993979 0 0 1 -0.0901,-0.0899 l -5.2e-4,-1.53592 a 0.08993979,0.08993979 0 0 0 -0.0899,-0.08991 h -0.43302 a 0.09000629,0.09000629 0 0 1 -0.0901,-0.0899 l -7.1e-4,-0.71818 a 0.08980216,0.08980216 0 0 1 0.0897,-0.0899 h 0.43372 a 0.08987141,0.08987141 0 0 0 0.0899,-0.08991 l -1.8e-4,-0.426165 a 0.08987141,0.08987141 0 0 1 0.0897,-0.0899 z m 4.29152,2.893437 v 0.989998 h -0.8655 v -0.772087 c 0.2692,-0.12331 0.56432,-0.19568 0.8655,-0.217911 z m 0.34733,0.02089 c 0.30118,0.02223 0.59631,0.0946 0.8655,0.217911 v 0.771911 h -0.8655 z m -1.59088,0.417561 v 0.551541 h -0.51063 c 0.13587,-0.220703 0.3098,-0.404638 0.51063,-0.551541 z m 2.83444,0.02072 c 0.20083,0.146902 0.37476,0.330838 0.51062,0.55154 h -0.51062 z m -3.52699,0.909402 h 0.69255 v 0.833545 h -0.69255 z m 1.0706,0 h 0.8655 v 0.833545 h -0.8655 z m 1.21283,0.02073 h 0.8655 v 0.833545 h -0.8655 z m 1.24356,0 h 0.69254 v 0.833545 h -0.69254 z m -3.52699,1.191231 h 0.69255 v 0.850751 h -0.69255 z m 1.0706,0 h 0.8655 v 0.850751 h -0.8655 z m 1.21283,0.02073 h 0.8655 v 0.850752 h -0.8655 z m 1.24356,0 h 0.69254 v 0.850752 h -0.69254 z m -3.52699,1.208436 h 0.69255 v 0.732401 h -0.69255 z m 1.0706,0 h 0.8655 v 0.732401 h -0.8655 z m 1.21283,0.0209 h 0.8655 v 0.732228 h -0.8655 z m 1.24356,0 h 0.69254 v 0.732228 h -0.69254 z" /><g
         id="g9369"
         transform="matrix(0.3397953,0,0,0.3397953,277.39975,31.974638)"><path
           id="path988-0"
           style="fill:none;stroke:#24354f;stroke-width:1.56684"
           transform="matrix(0.97010446,0,0,0.98192537,-357.99554,9.1137123)"
           d="m -145.01562,23.384766 c -35.53139,0.905965 -58.2724,29.916881 -58.43946,58.304687 a 1.7098448,1.7098448 0 0 0 0,0.0098 V 165.0918 c -0.0235,1.54974 -0.0223,2.84126 0.54883,4.11523 0.57445,1.28145 1.73533,2.20884 3.20703,2.87891 a 1.7098448,1.7098448 0 0 0 0.0195,0.008 l 51.01953,22.49414 a 1.7098448,1.7098448 0 0 0 0.0215,0.01 c 4.45723,1.88986 8.44868,-0.28628 9.26172,-0.60157 a 1.7098448,1.7098448 0 0 0 0.0684,-0.0273 l 48.90234,-21.42578 a 1.7098448,1.7098448 0 0 0 0.150391,-0.0762 c 1.841581,-1.03323 3.11243,-2.18604 3.708984,-3.69532 0.588159,-1.48803 0.498782,-2.96725 0.388672,-4.71875 l 0.166015,-82.363277 a 1.7098448,1.7098448 0 0 0 0,-0.002 1.7098448,1.7098448 0 0 0 0,-0.0059 1.7098448,1.7098448 0 0 0 0,-0.002 c -0.04506,-13.076036 -5.003851,-27.462836 -14.855472,-38.720704 -9.85161,-11.257867 -24.66408,-19.328893 -44.10351,-19.574218 a 1.7098448,1.7098448 0 0 0 -0.0645,0 z" /><path
           id="path988-0-0"
           style="fill:none;stroke:#24354f;stroke-width:11.7101"
           transform="matrix(0.97010446,0,0,0.98192537,-357.99554,9.1137123)"
           d="m -145.17383,14.949219 c -0.0189,6.03e-4 -0.0377,0.0013 -0.0566,0.002 -40.02752,1.020605 -66.46873,33.830037 -66.66211,66.689453 -1e-5,0.0085 -1e-5,0.01693 0,0.02539 -5e-5,0.01932 -5e-5,0.03732 0,0.05664 V 165.0918 l 0.002,-0.12891 c -0.0247,1.62546 -0.15469,4.48341 1.28515,7.69531 1.68844,3.76648 4.78942,5.91224 7.41016,7.10547 0.037,0.0165 0.0741,0.0328 0.11133,0.0488 l 0.0293,0.0137 50.87305,22.42969 c 0.0345,0.0159 0.0689,0.0314 0.10352,0.0469 0.0486,0.0213 0.0975,0.0421 0.14648,0.0625 4.13333,1.75253 8.18355,1.61043 11.02148,1.01563 0.72462,0.0782 54.794935,-23.56437 54.794935,-23.56437 0,0 -14.793575,6.60592 -0.906249,0.45504 0.01695,-0.008 0.03388,-0.0155 0.05078,-0.0234 0.291899,-0.13018 0.577155,-0.2745 0.855469,-0.43164 2.729899,-1.53356 5.853839,-3.996 7.414062,-7.94336 1.398151,-3.53729 1.073726,-6.58657 0.962891,-8.34961 l 0.01758,0.54687 0.166015,-82.363279 v -0.01367 c 10e-7,-7.72e-4 0,-0.0012 0,-0.002 v -0.002 -0.002 -0.002 -0.002 -0.002 -0.002 -0.002 -0.002 c 1.3e-5,-0.0085 1.3e-5,-0.01693 0,-0.02539 -0.05244,-15.187314 -5.669998,-31.365076 -16.94346,-44.247737 -11.295563,-12.907936 -28.625693,-22.179019 -50.345703,-22.453125 -0.11048,-0.0015 -0.2196,-0.0021 -0.33008,0 z"
           sodipodi:nodetypes="ccsscccscccccccccccscccsscccccccscscc" /></g><g
         id="path1119"
         transform="matrix(0.3397953,0,0,0.3397953,72.875287,24.882721)"><path
           style="color:#000000;fill:#ba9128;-inkscape-stroke:none"
           d="m 108.91602,77.564453 -10.476567,0.01563 c -0.21824,3.31e-4 -0.398435,0.180197 -0.398437,0.398438 v 2.261718 c -2e-6,0.218273 0.182121,0.39777 0.40039,0.396485 l 10.462894,-0.06055 c 0.21819,-0.0013 0.39738,-0.180243 0.39843,-0.398438 l 0.01,-2.214843 c 0.001,-0.218272 -0.17821,-0.398769 -0.39648,-0.398438 z m 0,0.267578 c 0.0734,-1.11e-4 0.13121,0.05548 0.13086,0.128906 l -0.0117,2.214844 c -3.6e-4,0.07496 -0.0579,0.132371 -0.13282,0.132813 l -10.462887,0.0625 c -0.07347,4.32e-4 -0.13086,-0.05739 -0.130859,-0.13086 v -2.261718 c 10e-7,-0.07414 0.05672,-0.130747 0.130859,-0.13086 z"
           id="path521" /></g><rect
         style="fill:#24354f;fill-opacity:1;stroke:none;stroke-width:0.0181819;stroke-linecap:round;stroke-linejoin:round;stroke-miterlimit:4;stroke-dasharray:none;stroke-dashoffset:0"
         id="rect1342"
         width="35.981884"
         height="7.0046334"
         x="89.8116"
         y="80.3013" /><text
         xml:space="preserve"
         style="font-style:normal;font-variant:normal;font-weight:normal;font-stretch:normal;font-size:5.59299px;font-family:'DIN 1451 Std';-inkscape-font-specification:'DIN 1451 Std';fill:#ba9128;fill-opacity:1;stroke:none;stroke-width:0.074906;stroke-opacity:1"
         x="91.040741"
         y="86.763626"
         id="text291"
         transform="scale(1.0120054,0.98813702)"><tspan
           sodipodi:role="line"
           id="tspan289"
           style="font-style:normal;font-variant:normal;font-weight:normal;font-stretch:normal;font-family:'DIN 1451 Std';-inkscape-font-specification:'DIN 1451 Std';fill:#ba9128;fill-opacity:1;stroke:none;stroke-width:0.074906;stroke-opacity:1"
           x="91.040741"
           y="86.763626">BIRSTALL CRICKET</tspan></text><path
         style="fill:none;fill-opacity:1;stroke:#ba9128;stroke-width:0.260126;stroke-dasharray:none;stroke-opacity:1"
         d="M 89.811599,80.7187 H 125.79347"
         id="path9434"
         sodipodi:nodetypes="cc" /><path
         style="fill:none;fill-opacity:1;stroke:#ba9128;stroke-width:0.260126;stroke-dasharray:none;stroke-opacity:1"
         d="M 89.811599,86.857969 H 125.79347"
         id="path9434-7"
         sodipodi:nodetypes="cc" /><g
         id="path4238"
         style="stroke:none;stroke-opacity:1"
         transform="matrix(0.3397953,0,0,0.3397953,72.875287,24.882721)"><path
           style="color:#000000;fill:#ba9128;stroke:none;stroke-width:1.665;stroke-linecap:round;stroke-opacity:1;-inkscape-stroke:none"
           d="m 130.05302,78.610816 -3.19194,3.711559"
           id="path4315" /></g><g
         id="path4240"
         transform="matrix(0.3397953,0,0,0.3397953,72.875287,24.882721)"><path
           style="color:#000000;fill:#ba9128;stroke-width:1.665;stroke-linecap:round;-inkscape-stroke:none"
           d="m 135.17497,83.732766 -10.09544,8.388125"
           id="path4321" /></g><g
         id="path4242"
         transform="matrix(0.3397953,0,0,0.3397953,72.875287,24.882721)"><path
           style="color:#000000;fill:#ba9128;stroke-width:1.665;stroke-linecap:round;-inkscape-stroke:none"
           d="m 139.25769,89.671262 -14.47508,8.239659"
           id="path4327" /></g><g
         id="path4244"
         transform="matrix(0.3397953,0,0,0.3397953,72.875287,24.882721)"><path
           style="color:#000000;fill:#ba9128;stroke-width:1.665;stroke-linecap:round;-inkscape-stroke:none"
           d="M 142.22693,96.129373 125.0053,102.43902"
           id="path4333" /></g><path
         style="color:#000000;fill:#ba9128;stroke-width:0.56576;stroke-linecap:round;-inkscape-stroke:none"
         d="m 121.85913,59.917999 -6.83553,1.1855"
         id="path4339" /><path
         id="path4502"
         style="color:#000000;fill:#ba9128;stroke:none;stroke-linecap:round;-inkscape-stroke:none"
         sodipodi:type="inkscape:offset"
         inkscape:radius="-0.24361384"
         inkscape:original="M 129.57031 77.923828 A 0.83249998 0.83249998 0 0 0 129.00195 78.208984 L 126.88672 80.669922 L 126.88672 83.164062 A 0.83249998 0.83249998 0 0 0 127.07227 83.007812 L 130.26367 79.296875 A 0.83249998 0.83249998 0 0 0 130.17578 78.121094 A 0.83249998 0.83249998 0 0 0 129.57031 77.923828 z M 134.83203 82.904297 A 0.83249998 0.83249998 0 0 0 134.22266 83.091797 L 126.88672 89.1875 L 126.88672 91.353516 L 135.28711 84.373047 A 0.83249998 0.83249998 0 0 0 135.39453 83.201172 A 0.83249998 0.83249998 0 0 0 134.83203 82.904297 z M 139.05859 89.052734 A 0.83249998 0.83249998 0 0 0 138.42578 89.130859 L 126.88672 95.699219 L 126.88672 97.615234 L 139.25 90.578125 A 0.83249998 0.83249998 0 0 0 139.56055 89.443359 A 0.83249998 0.83249998 0 0 0 139.05859 89.052734 z M 141.52148 95.140625 L 126.88672 100.50391 L 126.88672 102.27539 L 142.09375 96.703125 A 0.83249998 0.83249998 0 0 0 142.58789 95.636719 A 0.83249998 0.83249998 0 0 0 141.52148 95.140625 z M 143.5957 102.28711 L 126.88672 105.18359 L 126.88672 106.875 L 143.87891 103.92773 A 0.83249998 0.83249998 0 0 0 144.55664 102.96484 A 0.83249998 0.83249998 0 0 0 143.5957 102.28711 z "
         d="m 129.58789,78.166016 c -0.15254,0.01118 -0.2997,0.08606 -0.40039,0.201172 l -2.05664,2.392578 v 1.80664 l 2.94726,-3.427734 a 0.2436382,0.2436382 0 0 1 0.002,-0.002 c 0.20189,-0.233816 0.17191,-0.628876 -0.0625,-0.830078 -0.11711,-0.10013 -0.27412,-0.152554 -0.42774,-0.140625 a 0.2436382,0.2436382 0 0 1 -0.002,0 z m 5.2207,4.980468 c -0.15358,-0.01455 -0.31085,0.03444 -0.42968,0.132813 l -7.24805,6.023437 v 1.53125 l 8,-6.648437 c 0.23679,-0.19721 0.27316,-0.591152 0.0762,-0.828125 -0.0983,-0.118365 -0.24523,-0.196546 -0.39844,-0.210938 z m 4.18555,6.140625 c -0.14869,-0.04117 -0.31306,-0.01946 -0.44726,0.05664 v -0.002 l -11.41602,6.5 v 1.355469 l 11.99805,-6.830078 c 0.26749,-0.152798 0.37311,-0.535021 0.2207,-0.802735 -0.0761,-0.133732 -0.20713,-0.236396 -0.35547,-0.277344 z m 2.61133,6.082032 -14.47461,5.304689 v 1.25195 l 14.87891,-5.451171 c 0.28868,-0.106419 0.45504,-0.464864 0.34961,-0.753906 -0.10588,-0.289174 -0.46453,-0.456861 -0.75391,-0.351562 z m 2.03125,7.158199 -16.50586,2.86133 v 1.19727 l 16.70703,-2.89844 c 0.30384,-0.0528 0.53137,-0.37781 0.47852,-0.68164 -0.0528,-0.3033 -0.37626,-0.53058 -0.67969,-0.47852 z"
         transform="matrix(0.3397953,0,0,0.3397953,72.875287,24.882721)" /><path
         id="path4502-0"
         style="color:#000000;fill:#ba9128;stroke:none;stroke-linecap:round;-inkscape-stroke:none"
         sodipodi:type="inkscape:offset"
         inkscape:radius="-0.24361384"
         inkscape:original="M 129.57031 77.923828 A 0.83249998 0.83249998 0 0 0 129.00195 78.208984 L 126.88672 80.669922 L 126.88672 83.164062 A 0.83249998 0.83249998 0 0 0 127.07227 83.007812 L 130.26367 79.296875 A 0.83249998 0.83249998 0 0 0 130.17578 78.121094 A 0.83249998 0.83249998 0 0 0 129.57031 77.923828 z M 134.83203 82.904297 A 0.83249998 0.83249998 0 0 0 134.22266 83.091797 L 126.88672 89.1875 L 126.88672 91.353516 L 135.28711 84.373047 A 0.83249998 0.83249998 0 0 0 135.39453 83.201172 A 0.83249998 0.83249998 0 0 0 134.83203 82.904297 z M 139.05859 89.052734 A 0.83249998 0.83249998 0 0 0 138.42578 89.130859 L 126.88672 95.699219 L 126.88672 97.615234 L 139.25 90.578125 A 0.83249998 0.83249998 0 0 0 139.56055 89.443359 A 0.83249998 0.83249998 0 0 0 139.05859 89.052734 z M 141.52148 95.140625 L 126.88672 100.50391 L 126.88672 102.27539 L 142.09375 96.703125 A 0.83249998 0.83249998 0 0 0 142.58789 95.636719 A 0.83249998 0.83249998 0 0 0 141.52148 95.140625 z M 143.5957 102.28711 L 126.88672 105.18359 L 126.88672 106.875 L 143.87891 103.92773 A 0.83249998 0.83249998 0 0 0 144.55664 102.96484 A 0.83249998 0.83249998 0 0 0 143.5957 102.28711 z "
         d="m 129.58789,78.166016 c -0.15254,0.01118 -0.2997,0.08606 -0.40039,0.201172 l -2.05664,2.392578 v 1.80664 l 2.94726,-3.427734 a 0.2436382,0.2436382 0 0 1 0.002,-0.002 c 0.20189,-0.233816 0.17191,-0.628876 -0.0625,-0.830078 -0.11711,-0.10013 -0.27412,-0.152554 -0.42774,-0.140625 a 0.2436382,0.2436382 0 0 1 -0.002,0 z m 5.2207,4.980468 c -0.15358,-0.01455 -0.31085,0.03444 -0.42968,0.132813 l -7.24805,6.023437 v 1.53125 l 8,-6.648437 c 0.23679,-0.19721 0.27316,-0.591152 0.0762,-0.828125 -0.0983,-0.118365 -0.24523,-0.196546 -0.39844,-0.210938 z m 4.18555,6.140625 c -0.14869,-0.04117 -0.31306,-0.01946 -0.44726,0.05664 v -0.002 l -11.41602,6.5 v 1.355469 l 11.99805,-6.830078 c 0.26749,-0.152798 0.37311,-0.535021 0.2207,-0.802735 -0.0761,-0.133732 -0.20713,-0.236396 -0.35547,-0.277344 z m 2.61133,6.082032 -14.47461,5.304689 v 1.25195 l 14.87891,-5.451171 c 0.28868,-0.106419 0.45504,-0.464864 0.34961,-0.753906 -0.10588,-0.289174 -0.46453,-0.456861 -0.75391,-0.351562 z m 2.03125,7.158199 -16.50586,2.86133 v 1.19727 l 16.70703,-2.89844 c 0.30384,-0.0528 0.53137,-0.37781 0.47852,-0.68164 -0.0528,-0.3033 -0.37626,-0.53058 -0.67969,-0.47852 z"
         transform="matrix(-0.3397953,0,0,0.3397953,143.29305,24.912321)" /></g></g></svg>
