<?xml version="1.0" encoding="UTF-8" standalone="no"?>
<!-- Created with Inkscape (http://www.inkscape.org/) -->

<svg
   width="200mm"
   height="200mm"
   viewBox="0 0 200 200"
   version="1.1"
   id="svg28515"
   inkscape:version="1.2.2 (b0a84865, 2022-12-01)"
   sodipodi:docname="club_logo.svg"
   inkscape:export-filename="favicon.svg"
   inkscape:export-xdpi="96"
   inkscape:export-ydpi="96"
   xmlns:inkscape="http://www.inkscape.org/namespaces/inkscape"
   xmlns:sodipodi="http://sodipodi.sourceforge.net/DTD/sodipodi-0.dtd"
   xmlns="http://www.w3.org/2000/svg"
   xmlns:svg="http://www.w3.org/2000/svg">
  <sodipodi:namedview
     id="namedview28517"
     pagecolor="#ffffff"
     bordercolor="#000000"
     borderopacity="0.25"
     inkscape:showpageshadow="2"
     inkscape:pageopacity="0.0"
     inkscape:pagecheckerboard="0"
     inkscape:deskcolor="#d1d1d1"
     inkscape:document-units="mm"
     showgrid="false"
     inkscape:zoom="0.29015243"
     inkscape:cx="423.91511"
     inkscape:cy="654.82822"
     inkscape:window-width="1512"
     inkscape:window-height="832"
     inkscape:window-x="0"
     inkscape:window-y="38"
     inkscape:window-maximized="1"
     inkscape:current-layer="layer1" />
  <defs
     id="defs28512" />
  <g
     inkscape:label="Layer 1"
     inkscape:groupmode="layer"
     id="layer1">
    <g
       id="g26693"
       transform="matrix(2.9368301,0,0,2.9368301,-752.32991,-324.49645)">
      <path
         id="path1065"
         style="fill:#ba9128;fill-opacity:1;stroke-width:0.0920883"
         d="m 292.59321,121.4669 a 0.08885948,0.08885948 0 0 0 -0.0904,0.0883 l -0.005,0.97279 a 0.09038779,0.09038779 0 0 1 -0.0904,0.0899 h -1.16067 a 0.08990426,0.08990426 0 0 1 -0.0899,-0.0899 v -0.94803 a 0.08990417,0.08990417 0 0 0 -0.0899,-0.0899 h -1.26814 a 0.08990417,0.08990417 0 0 0 -0.0899,0.0899 v 0.94803 a 0.08990417,0.08990417 0 0 1 -0.0899,0.0899 h -1.121 a 0.08904273,0.08904273 0 0 1 -0.089,-0.0899 l 0.009,-0.96331 a 0.08930693,0.08930693 0 0 0 -0.089,-0.0902 l -1.37087,-0.004 a 0.08913905,0.08913905 0 0 0 -0.0894,0.0897 l 0.0209,3.75648 a 0.089958,0.089958 0 0 1 -0.0894,0.0906 l -0.93574,0.006 a 0.08991349,0.08991349 0 0 1 -0.0906,-0.0894 l -0.0102,-1.62617 a 0.08961539,0.08961539 0 0 0 -0.0904,-0.089 l -1.60826,0.0153 a 0.09076266,0.09076266 0 0 0 -0.0899,0.0908 v 11.97831 l 13.02083,0.0441 -0.0211,-12.02239 a 0.09116643,0.09116643 0 0 0 -0.0901,-0.091 l -1.62425,-0.0198 a 0.08881523,0.08881523 0 0 0 -0.0899,0.0888 v 1.62407 a 0.08990417,0.08990417 0 0 1 -0.0899,0.0899 h -1.01897 a 0.09041024,0.09041024 0 0 1 -0.0904,-0.0899 l -0.0211,-3.73664 a 0.09196547,0.09196547 0 0 0 -0.0903,-0.0915 z m -0.32398,2.9858 a 0.08933689,0.08933689 0 0 1 0.0896,0.0897 l -0.004,0.75225 a 0.09087115,0.09087115 0 0 1 -0.0903,0.0904 l -3.55542,0.0209 a 0.08937593,0.08937593 0 0 1 -0.0899,-0.0894 v -0.7684 a 0.09004134,0.09004134 0 0 1 0.0899,-0.0901 z m 1.98299,3.54928 h 0.69746 a 0.08993744,0.08993744 0 0 1 0.0899,0.0899 l 1.8e-4,0.42634 a 0.08916584,0.08916584 0 0 0 0.0899,0.089 l 0.46919,-0.004 a 0.08790107,0.08790107 0 0 1 0.0887,0.0892 l -0.01,0.72362 a 0.0911639,0.0911639 0 0 1 -0.0911,0.0899 H 295.13 a 0.08986857,0.08986857 0 0 0 -0.0899,0.0899 l 7.7e-4,1.53609 a 0.08986857,0.08986857 0 0 1 -0.0899,0.0899 h -0.69745 a 0.08993979,0.08993979 0 0 1 -0.0899,-0.0899 h -1.7e-4 l -7.7e-4,-1.53609 a 0.08993979,0.08993979 0 0 0 -0.0899,-0.0899 h -0.43302 a 0.09000629,0.09000629 0 0 1 -0.0899,-0.0899 l -7.6e-4,-0.71801 a 0.08980216,0.08980216 0 0 1 0.0897,-0.0899 h 0.43372 a 0.08987141,0.08987141 0 0 0 0.0899,-0.0899 l -1.7e-4,-0.42635 a 0.08987141,0.08987141 0 0 1 0.0899,-0.0899 z m -8.28611,0.14872 h 0.69746 a 0.08993744,0.08993744 0 0 1 0.0899,0.0899 l 1.8e-4,0.42616 a 0.08916584,0.08916584 0 0 0 0.0901,0.0892 l 0.46919,-0.004 a 0.08790107,0.08790107 0 0 1 0.0887,0.089 l -0.01,0.7238 a 0.0911639,0.0911639 0 0 1 -0.0911,0.0899 H 286.844 a 0.08986857,0.08986857 0 0 0 -0.0897,0.0899 l 5.3e-4,1.53592 a 0.08986857,0.08986857 0 0 1 -0.0899,0.0899 h -0.69728 a 0.08993979,0.08993979 0 0 1 -0.0901,-0.0899 l -5.2e-4,-1.53592 a 0.08993979,0.08993979 0 0 0 -0.0899,-0.0899 h -0.43301 a 0.09000629,0.09000629 0 0 1 -0.0901,-0.0899 l -7.1e-4,-0.71818 a 0.08980216,0.08980216 0 0 1 0.0897,-0.0899 h 0.43371 a 0.08987141,0.08987141 0 0 0 0.0899,-0.0899 l -1.8e-4,-0.42617 a 0.08987141,0.08987141 0 0 1 0.0897,-0.0899 z m 4.29152,2.89344 v 0.99 h -0.8655 v -0.77209 c 0.26919,-0.12331 0.56432,-0.19568 0.8655,-0.21791 z m 0.34732,0.0209 c 0.30119,0.0222 0.59632,0.0946 0.86551,0.21791 v 0.77191 h -0.86551 z m -1.59088,0.41756 v 0.55154 h -0.51063 c 0.13587,-0.2207 0.3098,-0.40464 0.51063,-0.55154 z m 2.83444,0.0207 c 0.20083,0.1469 0.37476,0.33084 0.51063,0.55154 h -0.51063 z m -3.52698,0.9094 h 0.69254 v 0.83355 h -0.69254 z m 1.0706,0 h 0.8655 v 0.83355 h -0.8655 z m 1.21282,0.0207 h 0.86551 v 0.83354 h -0.86551 z m 1.24356,0 h 0.69254 v 0.83354 h -0.69254 z m -3.52698,1.19123 h 0.69254 v 0.85075 h -0.69254 z m 1.0706,0 h 0.8655 v 0.85075 h -0.8655 z m 1.21282,0.0207 h 0.86551 v 0.85076 h -0.86551 z m 1.24356,0 h 0.69254 v 0.85076 h -0.69254 z m -3.52698,1.20844 h 0.69254 v 0.7324 h -0.69254 z m 1.0706,0 h 0.8655 v 0.7324 h -0.8655 z m 1.21282,0.0209 h 0.86551 v 0.73223 h -0.86551 z m 1.24356,0 h 0.69254 v 0.73223 h -0.69254 z" />
      <g
         id="g9369"
         transform="matrix(0.3397953,0,0,0.3397953,459.78444,105.14319)">
        <path
           id="path988-0"
           style="fill:none;stroke:#24354f;stroke-width:1.56684"
           transform="matrix(0.97010446,0,0,0.98192537,-357.99554,9.1137123)"
           d="m -145.01562,23.384766 c -35.53139,0.905965 -58.2724,29.916881 -58.43946,58.304687 a 1.7098448,1.7098448 0 0 0 0,0.0098 V 165.0918 c -0.0235,1.54974 -0.0223,2.84126 0.54883,4.11523 0.57445,1.28145 1.73533,2.20884 3.20703,2.87891 a 1.7098448,1.7098448 0 0 0 0.0195,0.008 l 51.01953,22.49414 a 1.7098448,1.7098448 0 0 0 0.0215,0.01 c 4.45723,1.88986 8.44868,-0.28628 9.26172,-0.60157 a 1.7098448,1.7098448 0 0 0 0.0684,-0.0273 l 48.90234,-21.42578 a 1.7098448,1.7098448 0 0 0 0.150391,-0.0762 c 1.841581,-1.03323 3.11243,-2.18604 3.708984,-3.69532 0.588159,-1.48803 0.498782,-2.96725 0.388672,-4.71875 l 0.166015,-82.363277 a 1.7098448,1.7098448 0 0 0 0,-0.002 1.7098448,1.7098448 0 0 0 0,-0.0059 1.7098448,1.7098448 0 0 0 0,-0.002 c -0.04506,-13.076036 -5.003851,-27.462836 -14.855472,-38.720704 -9.85161,-11.257867 -24.66408,-19.328893 -44.10351,-19.574218 a 1.7098448,1.7098448 0 0 0 -0.0645,0 z" />
        <path
           id="path988-0-0"
           style="fill:none;stroke:#24354f;stroke-width:11.7101"
           transform="matrix(0.97010446,0,0,0.98192537,-357.99554,9.1137123)"
           d="m -145.17383,14.949219 c -0.0189,6.03e-4 -0.0377,0.0013 -0.0566,0.002 -40.02752,1.020605 -66.46873,33.830037 -66.66211,66.689453 -1e-5,0.0085 -1e-5,0.01693 0,0.02539 -5e-5,0.01932 -5e-5,0.03732 0,0.05664 V 165.0918 l 0.002,-0.12891 c -0.0247,1.62546 -0.15469,4.48341 1.28515,7.69531 1.68844,3.76648 4.78942,5.91224 7.41016,7.10547 0.037,0.0165 0.0741,0.0328 0.11133,0.0488 l 0.0293,0.0137 50.87305,22.42969 c 0.0345,0.0159 0.0689,0.0314 0.10352,0.0469 0.0486,0.0213 0.0975,0.0421 0.14648,0.0625 4.13333,1.75253 8.18355,1.61043 11.02148,1.01563 0.72462,0.0782 54.794935,-23.56437 54.794935,-23.56437 0,0 -14.793575,6.60592 -0.906249,0.45504 0.01695,-0.008 0.03388,-0.0155 0.05078,-0.0234 0.291899,-0.13018 0.577155,-0.2745 0.855469,-0.43164 2.729899,-1.53356 5.853839,-3.996 7.414062,-7.94336 1.398151,-3.53729 1.073726,-6.58657 0.962891,-8.34961 l 0.01758,0.54687 0.166015,-82.363279 v -0.01367 c 10e-7,-7.72e-4 0,-0.0012 0,-0.002 v -0.002 -0.002 -0.002 -0.002 -0.002 -0.002 -0.002 -0.002 c 1.3e-5,-0.0085 1.3e-5,-0.01693 0,-0.02539 -0.05244,-15.187314 -5.669998,-31.365076 -16.94346,-44.247737 -11.295563,-12.907936 -28.625693,-22.179019 -50.345703,-22.453125 -0.11048,-0.0015 -0.2196,-0.0021 -0.33008,0 z"
           sodipodi:nodetypes="ccsscccscccccccccccscccsscccccccscscc" />
      </g>
      <text
         xml:space="preserve"
         style="font-style:normal;font-variant:normal;font-weight:normal;font-stretch:normal;font-size:7.92821px;font-family:'DIN 1451 Engschrift';-inkscape-font-specification:'DIN 1451 Engschrift';dominant-baseline:central;text-anchor:middle;fill:#24354f;fill-opacity:1;stroke:none;stroke-width:0.106181;stroke-opacity:1"
         x="297.13263"
         y="156.16287"
         id="text3755-5"
         transform="scale(0.97852241,1.021949)"><tspan
           sodipodi:role="line"
           id="tspan3753-4"
           style="font-style:normal;font-variant:normal;font-weight:normal;font-stretch:normal;font-family:'DIN 1451 Engschrift';-inkscape-font-specification:'DIN 1451 Engschrift';fill:#24354f;fill-opacity:1;stroke:none;stroke-width:0.106181"
           x="297.13263"
           y="156.16287">CRICKET CLUB</tspan></text>
      <g
         id="path1119"
         transform="matrix(0.3397953,0,0,0.3397953,255.25997,98.05127)">
        <path
           style="color:#000000;fill:#ba9128;-inkscape-stroke:none"
           d="m 108.91602,77.564453 -10.476567,0.01563 c -0.21824,3.31e-4 -0.398435,0.180197 -0.398437,0.398438 v 2.261718 c -2e-6,0.218273 0.182121,0.39777 0.40039,0.396485 l 10.462894,-0.06055 c 0.21819,-0.0013 0.39738,-0.180243 0.39843,-0.398438 l 0.01,-2.214843 c 0.001,-0.218272 -0.17821,-0.398769 -0.39648,-0.398438 z m 0,0.267578 c 0.0734,-1.11e-4 0.13121,0.05548 0.13086,0.128906 l -0.0117,2.214844 c -3.6e-4,0.07496 -0.0579,0.132371 -0.13282,0.132813 l -10.462887,0.0625 c -0.07347,4.32e-4 -0.13086,-0.05739 -0.130859,-0.13086 v -2.261718 c 10e-7,-0.07414 0.05672,-0.130747 0.130859,-0.13086 z"
           id="path521" />
      </g>
      <text
         xml:space="preserve"
         style="font-style:normal;font-variant:normal;font-weight:normal;font-stretch:normal;font-size:3.53075px;font-family:'DIN 1451 Engschrift';-inkscape-font-specification:'DIN 1451 Engschrift';dominant-baseline:central;text-anchor:middle;fill:#ba9128;fill-opacity:1;stroke:none;stroke-width:0.0472866;stroke-opacity:1"
         x="254.17056"
         y="188.3992"
         id="text3755"
         transform="scale(1.1427465,0.87508472)"><tspan
           sodipodi:role="line"
           id="tspan3753"
           style="font-style:normal;font-variant:normal;font-weight:normal;font-stretch:normal;font-family:'DIN 1451 Engschrift';-inkscape-font-specification:'DIN 1451 Engschrift';fill:#ba9128;fill-opacity:1;stroke:none;stroke-width:0.0472866"
           x="254.17056"
           y="188.3992">EST.1885</tspan></text>
      <rect
         style="fill:#24354f;fill-opacity:1;stroke:none;stroke-width:0.0356258;stroke-linecap:round;stroke-linejoin:round;stroke-miterlimit:4;stroke-dasharray:none;stroke-dashoffset:0"
         id="rect1342"
         width="53.440132"
         height="18.107258"
         x="263.58322"
         y="135.54672" />
      <text
         xml:space="preserve"
         style="font-style:normal;font-variant:normal;font-weight:normal;font-stretch:normal;font-size:14.4581px;font-family:'DIN 1451 Std';-inkscape-font-specification:'DIN 1451 Std';dominant-baseline:central;text-anchor:middle;fill:#ba9128;fill-opacity:1;stroke:none;stroke-width:0.193635;stroke-opacity:1"
         x="288.34921"
         y="148.70959"
         id="text291"
         transform="scale(1.0120054,0.98813702)"><tspan
           sodipodi:role="line"
           id="tspan289"
           style="font-style:normal;font-variant:normal;font-weight:normal;font-stretch:normal;font-family:'DIN 1451 Std';-inkscape-font-specification:'DIN 1451 Std';fill:#ba9128;fill-opacity:1;stroke:none;stroke-width:0.193635;stroke-opacity:1"
           x="288.34921"
           y="148.70959">BIRSTALL</tspan></text>
      <path
         style="fill:none;fill-opacity:1;stroke:#ba9128;stroke-width:0.509694;stroke-dasharray:none;stroke-opacity:1"
         d="m 263.58322,136.62573 h 53.44014"
         id="path9434"
         sodipodi:nodetypes="cc" />
      <path
         style="fill:none;fill-opacity:1;stroke:#ba9128;stroke-width:0.509694;stroke-dasharray:none;stroke-opacity:1"
         d="m 263.58322,152.49598 h 53.44014"
         id="path9434-7"
         sodipodi:nodetypes="cc" />
      <rect
         style="fill:#ba9128;fill-opacity:1;stroke:#ba9128;stroke-width:0.26743;stroke-linecap:round;stroke-dasharray:none;stroke-opacity:1"
         id="rect11534"
         width="2.9705"
         height="0.17536138"
         x="280.6626"
         y="164.85429"
         ry="0.038874906" />
      <rect
         style="display:inline;fill:#ba9128;fill-opacity:1;stroke:#ba9128;stroke-width:0.26743;stroke-linecap:round;stroke-dasharray:none;stroke-opacity:1"
         id="rect11534-3"
         width="2.9705"
         height="0.17536138"
         x="297.31403"
         y="164.80548"
         ry="0.038874906" />
      <g
         id="path4238"
         style="stroke:none;stroke-opacity:1"
         transform="matrix(0.3397953,0,0,0.3397953,255.25997,98.05127)">
        <path
           style="color:#000000;fill:#ba9128;stroke:none;stroke-width:1.665;stroke-linecap:round;stroke-opacity:1;-inkscape-stroke:none"
           d="m 130.05302,78.610816 -3.19194,3.711559"
           id="path4315" />
      </g>
      <g
         id="path4240"
         transform="matrix(0.3397953,0,0,0.3397953,255.25997,98.05127)">
        <path
           style="color:#000000;fill:#ba9128;stroke-width:1.665;stroke-linecap:round;-inkscape-stroke:none"
           d="m 135.17497,83.732766 -10.09544,8.388125"
           id="path4321" />
      </g>
      <g
         id="path4242"
         transform="matrix(0.3397953,0,0,0.3397953,255.25997,98.05127)">
        <path
           style="color:#000000;fill:#ba9128;stroke-width:1.665;stroke-linecap:round;-inkscape-stroke:none"
           d="m 139.25769,89.671262 -14.47508,8.239659"
           id="path4327" />
      </g>
      <g
         id="path4244"
         transform="matrix(0.3397953,0,0,0.3397953,255.25997,98.05127)">
        <path
           style="color:#000000;fill:#ba9128;stroke-width:1.665;stroke-linecap:round;-inkscape-stroke:none"
           d="M 142.22693,96.129373 125.0053,102.43902"
           id="path4333" />
      </g>
      <path
         style="color:#000000;fill:#ba9128;stroke-width:0.56576;stroke-linecap:round;-inkscape-stroke:none"
         d="m 304.24382,133.08655 -6.83554,1.1855"
         id="path4339" />
      <path
         id="path4502"
         style="color:#000000;fill:#ba9128;stroke:none;stroke-linecap:round;-inkscape-stroke:none"
         sodipodi:type="inkscape:offset"
         inkscape:radius="-0.24361384"
         inkscape:original="M 129.57031 77.923828 A 0.83249998 0.83249998 0 0 0 129.00195 78.208984 L 126.88672 80.669922 L 126.88672 83.164062 A 0.83249998 0.83249998 0 0 0 127.07227 83.007812 L 130.26367 79.296875 A 0.83249998 0.83249998 0 0 0 130.17578 78.121094 A 0.83249998 0.83249998 0 0 0 129.57031 77.923828 z M 134.83203 82.904297 A 0.83249998 0.83249998 0 0 0 134.22266 83.091797 L 126.88672 89.1875 L 126.88672 91.353516 L 135.28711 84.373047 A 0.83249998 0.83249998 0 0 0 135.39453 83.201172 A 0.83249998 0.83249998 0 0 0 134.83203 82.904297 z M 139.05859 89.052734 A 0.83249998 0.83249998 0 0 0 138.42578 89.130859 L 126.88672 95.699219 L 126.88672 97.615234 L 139.25 90.578125 A 0.83249998 0.83249998 0 0 0 139.56055 89.443359 A 0.83249998 0.83249998 0 0 0 139.05859 89.052734 z M 141.52148 95.140625 L 126.88672 100.50391 L 126.88672 102.27539 L 142.09375 96.703125 A 0.83249998 0.83249998 0 0 0 142.58789 95.636719 A 0.83249998 0.83249998 0 0 0 141.52148 95.140625 z M 143.5957 102.28711 L 126.88672 105.18359 L 126.88672 106.875 L 143.87891 103.92773 A 0.83249998 0.83249998 0 0 0 144.55664 102.96484 A 0.83249998 0.83249998 0 0 0 143.5957 102.28711 z "
         d="m 129.58789,78.166016 c -0.15254,0.01118 -0.2997,0.08606 -0.40039,0.201172 l -2.05664,2.392578 v 1.80664 l 2.94726,-3.427734 a 0.2436382,0.2436382 0 0 1 0.002,-0.002 c 0.20189,-0.233816 0.17191,-0.628876 -0.0625,-0.830078 -0.11711,-0.10013 -0.27412,-0.152554 -0.42774,-0.140625 a 0.2436382,0.2436382 0 0 1 -0.002,0 z m 5.2207,4.980468 c -0.15358,-0.01455 -0.31085,0.03444 -0.42968,0.132813 l -7.24805,6.023437 v 1.53125 l 8,-6.648437 c 0.23679,-0.19721 0.27316,-0.591152 0.0762,-0.828125 -0.0983,-0.118365 -0.24523,-0.196546 -0.39844,-0.210938 z m 4.18555,6.140625 c 0.10873,0.05165 -0.44498,-0.101345 -0.44726,0.05469 l -11.41602,6.5 v 1.355469 l 11.99805,-6.830078 c 0.26749,-0.152798 0.37311,-0.535021 0.2207,-0.802735 -0.0761,-0.133732 -0.20713,-0.236396 -0.35547,-0.277344 z m 2.61133,6.082032 -14.47461,5.304689 v 1.25195 l 14.87891,-5.451171 c 0.28868,-0.106419 0.45504,-0.464864 0.34961,-0.753906 -0.10588,-0.289174 -0.46453,-0.456861 -0.75391,-0.351562 z m 2.03125,7.158199 -16.50586,2.86133 v 1.19727 l 16.70703,-2.89844 c 0.30384,-0.0528 0.53137,-0.37781 0.47852,-0.68164 -0.0528,-0.3033 -0.37626,-0.53058 -0.67969,-0.47852 z"
         transform="matrix(0.3397953,0,0,0.3397953,255.25997,98.05127)" />
      <path
         id="path4502-0"
         style="color:#000000;fill:#ba9128;stroke:none;stroke-linecap:round;-inkscape-stroke:none"
         sodipodi:type="inkscape:offset"
         inkscape:radius="-0.24361384"
         inkscape:original="M 129.57031 77.923828 A 0.83249998 0.83249998 0 0 0 129.00195 78.208984 L 126.88672 80.669922 L 126.88672 83.164062 A 0.83249998 0.83249998 0 0 0 127.07227 83.007812 L 130.26367 79.296875 A 0.83249998 0.83249998 0 0 0 130.17578 78.121094 A 0.83249998 0.83249998 0 0 0 129.57031 77.923828 z M 134.83203 82.904297 A 0.83249998 0.83249998 0 0 0 134.22266 83.091797 L 126.88672 89.1875 L 126.88672 91.353516 L 135.28711 84.373047 A 0.83249998 0.83249998 0 0 0 135.39453 83.201172 A 0.83249998 0.83249998 0 0 0 134.83203 82.904297 z M 139.05859 89.052734 A 0.83249998 0.83249998 0 0 0 138.42578 89.130859 L 126.88672 95.699219 L 126.88672 97.615234 L 139.25 90.578125 A 0.83249998 0.83249998 0 0 0 139.56055 89.443359 A 0.83249998 0.83249998 0 0 0 139.05859 89.052734 z M 141.52148 95.140625 L 126.88672 100.50391 L 126.88672 102.27539 L 142.09375 96.703125 A 0.83249998 0.83249998 0 0 0 142.58789 95.636719 A 0.83249998 0.83249998 0 0 0 141.52148 95.140625 z M 143.5957 102.28711 L 126.88672 105.18359 L 126.88672 106.875 L 143.87891 103.92773 A 0.83249998 0.83249998 0 0 0 144.55664 102.96484 A 0.83249998 0.83249998 0 0 0 143.5957 102.28711 z "
         d="m 129.58789,78.166016 c -0.15254,0.01118 -0.2997,0.08606 -0.40039,0.201172 l -2.05664,2.392578 v 1.80664 l 2.94726,-3.427734 a 0.2436382,0.2436382 0 0 1 0.002,-0.002 c 0.20189,-0.233816 0.17191,-0.628876 -0.0625,-0.830078 -0.11711,-0.10013 -0.27412,-0.152554 -0.42774,-0.140625 a 0.2436382,0.2436382 0 0 1 -0.002,0 z m 5.2207,4.980468 c -0.15358,-0.01455 -0.31085,0.03444 -0.42968,0.132813 l -7.24805,6.023437 v 1.53125 l 8,-6.648437 c 0.23679,-0.19721 0.27316,-0.591152 0.0762,-0.828125 -0.0983,-0.118365 -0.24523,-0.196546 -0.39844,-0.210938 z m 4.18555,6.140625 c 0.10873,0.05165 -0.44498,-0.101345 -0.44726,0.05469 l -11.41602,6.5 v 1.355469 l 11.99805,-6.830078 c 0.26749,-0.152798 0.37311,-0.535021 0.2207,-0.802735 -0.0761,-0.133732 -0.20713,-0.236396 -0.35547,-0.277344 z m 2.61133,6.082032 -14.47461,5.304689 v 1.25195 l 14.87891,-5.451171 c 0.28868,-0.106419 0.45504,-0.464864 0.34961,-0.753906 -0.10588,-0.289174 -0.46453,-0.456861 -0.75391,-0.351562 z m 2.03125,7.158199 -16.50586,2.86133 v 1.19727 l 16.70703,-2.89844 c 0.30384,-0.0528 0.53137,-0.37781 0.47852,-0.68164 -0.0528,-0.3033 -0.37626,-0.53058 -0.67969,-0.47852 z"
         transform="matrix(-0.3397953,0,0,0.3397953,325.67774,98.08087)" />
    </g>
  </g>
</svg>
