<?xml version="1.0" encoding="UTF-8" standalone="no"?>
<svg
   width="274.85464"
   height="278.05405"
   viewBox="0 0 274.85464 278.05404"
   version="1.1"
   id="svg16443"
   xmlns="http://www.w3.org/2000/svg"
   xmlns:svg="http://www.w3.org/2000/svg">
  <defs
     id="defs16447" />
  <path
     id="rect19078"
     style="fill:#4a6285;stroke-width:3.89545;stroke-linecap:square;stroke-linejoin:bevel"
     d="M 51.456532,10.194402 H 223.39812 c 24.63169,0 44.46153,19.829843 44.46153,44.461532 V 223.39812 c 0,24.63169 -19.82984,44.46153 -44.46153,44.46153 H 51.456532 c -24.631689,0 -44.4615321,-19.82984 -44.4615321,-44.46153 V 54.655934 c 0,-24.631689 19.8298431,-44.461532 44.4615321,-44.461532 z" />
  <path
     fill-rule="nonzero"
     fill="#89a39e"
     fill-opacity="1"
     d="M 54.815184,63.915841 V 222.8337 l 52.047756,45.02595 H 237.4616 l 30.39805,-44.46151 V 136.29191 L 184.19746,63.915841 145.32948,76.549991 62.607416,63.915841 h -7.792232"
     id="path16435"
     style="fill:#1a2638;fill-opacity:1;stroke-width:0.0695658" />
  <path
     fill-rule="nonzero"
     fill="#ffffff"
     fill-opacity="1"
     d="m 62.693235,63.915841 c 0,0 3.885735,13.001991 3.885735,35.356506 0,22.354153 -3.885735,35.356263 -3.885735,35.356263 0,0 15.619463,-4.56135 35.871981,-4.56135 20.251964,0 32.102014,4.56598 49.253674,4.56598 18.38179,0 34.0181,-2.86876 34.0181,-2.86876 l 3.78541,-67.848639 c 0,0 -21.15789,4.279514 -39.30677,4.279514 -18.14901,0 -33.9154,-5.316112 -51.714067,-5.316112 -17.800611,0 -31.908328,1.036598 -31.908328,1.036598"
     id="path16437"
     style="stroke-width:0.0707477" />
  <path
     fill-rule="nonzero"
     fill="#ffffff"
     fill-opacity="1"
     d="m 54.814488,63.915841 h 7.878747 V 226.48928 H 54.814488 V 63.915841"
     id="path16439"
     style="stroke-width:0.0707477" />
  <path
     fill-rule="nonzero"
     fill="#ffffff"
     fill-opacity="1"
     d="m 65.188554,59.477628 c 0,3.111012 -2.881152,5.632292 -6.434205,5.632292 -3.554028,0 -6.434624,-2.52128 -6.434624,-5.632292 0,-3.110159 2.880596,-5.632171 6.434624,-5.632171 3.553053,0 6.434205,2.522012 6.434205,5.632171"
     id="path16441"
     style="stroke-width:0.0707477" />
  <path
     id="rect19340"
     style="fill:none;stroke:#8b6b1e;stroke-width:13.99;stroke-linecap:square;stroke-linejoin:bevel"
     d="M 54.65595,6.9949999 H 220.1987 c 26.40417,0 47.66095,21.2567831 47.66095,47.6609501 v 168.74216 c 0,26.40416 -21.25678,47.66095 -47.66095,47.66095 H 54.65595 c -26.404167,0 -47.6609501,-21.25679 -47.6609501,-47.66095 V 54.65595 c 0,-26.404167 21.2567831,-47.6609501 47.6609501,-47.6609501 z" />
</svg>
